<svg width="20" height="20" viewBox="0 0 20 20" fill="none" xmlns="http://www.w3.org/2000/svg">
<path d="M6.50258 4.77583C6.99341 4.77583 7.43508 4.81833 7.84008 4.905C8.24258 4.99083 8.58592 5.1325 8.87592 5.32833C9.16175 5.52417 9.38508 5.78417 9.54592 6.11083C9.70175 6.43333 9.77925 6.83667 9.77925 7.31333C9.77925 7.83 9.66258 8.26167 9.42842 8.60583C9.19258 8.95083 8.84508 9.23333 8.38175 9.45167C9.01258 9.63417 9.48008 9.95333 9.79008 10.4067C10.1017 10.8642 10.2542 11.4117 10.2542 12.0533C10.2542 12.5742 10.1551 13.0217 9.95591 13.3975C9.76399 13.7677 9.48555 14.0862 9.14425 14.3258C8.79072 14.572 8.39584 14.7527 7.97842 14.8592C7.54076 14.974 7.09006 15.0318 6.63758 15.0308H1.66675V4.77583H6.50258ZM6.21008 8.91917C6.61008 8.91917 6.94175 8.82417 7.20341 8.63167C7.46342 8.44167 7.58925 8.12833 7.58925 7.69917C7.58925 7.46083 7.54675 7.26417 7.46342 7.11C7.38223 6.96168 7.26207 6.83836 7.11591 6.75333C6.96294 6.66261 6.79411 6.6018 6.61841 6.57417C6.42691 6.53845 6.23238 6.52143 6.03758 6.52333H3.92508V8.91917H6.21008ZM6.33592 13.285C6.55841 13.285 6.77008 13.2658 6.96925 13.2208C7.17008 13.1775 7.34841 13.1075 7.50008 13.0033C7.65175 12.9033 7.77675 12.7675 7.86675 12.5942C7.95758 12.4225 8.00175 12.1983 8.00175 11.9292C8.00175 11.4008 7.85258 11.025 7.55758 10.7975C7.26175 10.5725 6.86508 10.4608 6.37925 10.4608H3.92508V13.2858H6.33592V13.285ZM13.4734 13.2508C13.7792 13.5492 14.2201 13.6992 14.7934 13.6992C15.2042 13.6992 15.5592 13.595 15.8584 13.3883C16.1534 13.1808 16.3334 12.9592 16.4026 12.73H18.1984C17.9101 13.6233 17.4726 14.2617 16.8742 14.6458C16.2834 15.0317 15.5642 15.2233 14.7242 15.2233C14.1392 15.2233 13.6126 15.1292 13.1409 14.9425C12.6882 14.7662 12.2791 14.4938 11.9417 14.1442C11.61 13.7864 11.3535 13.3655 11.1876 12.9067C11.0052 12.3993 10.9149 11.8633 10.9209 11.3242C10.9209 10.7692 11.0134 10.25 11.1951 9.77083C11.3675 9.30765 11.6323 8.88436 11.9734 8.52667C12.3109 8.17667 12.7109 7.90083 13.1767 7.69833C13.6666 7.49231 14.1937 7.38962 14.7251 7.39667C15.3534 7.39667 15.9026 7.51833 16.3742 7.76333C16.8316 7.9972 17.2282 8.33446 17.5326 8.74833C17.8351 9.15917 18.0509 9.63 18.1851 10.1575C18.3193 10.6842 18.3659 11.2342 18.3276 11.81H12.9684C12.9692 12.3967 13.1667 12.9525 13.4734 13.2508ZM15.8167 9.35C15.5742 9.08167 15.1642 8.93667 14.6626 8.93667C14.3367 8.93667 14.0676 8.99083 13.8509 9.1025C13.6528 9.20256 13.477 9.34175 13.3342 9.51167C13.2088 9.66593 13.1159 9.84393 13.0609 10.035C13.0128 10.1943 12.9818 10.3583 12.9684 10.5242H16.2867C16.2384 10.0042 16.0601 9.62 15.8167 9.35ZM12.5517 5.46417H16.7092V6.47667H12.5517V5.46417Z" fill="#DA802D"/>
</svg>
