<svg width="20" height="20" viewBox="0 0 20 20" fill="none" xmlns="http://www.w3.org/2000/svg">
<path d="M9.99988 0.476196C4.73988 0.476196 0.476074 4.74001 0.476074 10C0.476074 15.26 4.73988 19.5238 9.99988 19.5238C15.2599 19.5238 19.5237 15.26 19.5237 10C19.5237 4.74001 15.2599 0.476196 9.99988 0.476196ZM9.99988 1.8562C12.0746 1.8562 13.9685 2.63239 15.4066 3.90953C14.3499 5.30334 12.7446 6.23143 11.1361 6.85953C10.2255 5.20112 9.20494 3.6055 8.08131 2.08334C8.70974 1.93186 9.35394 1.85561 10.0004 1.8562H9.99988ZM6.53512 2.62762C7.59703 4.2162 8.6256 5.68905 9.56512 7.3562C7.18893 7.97191 4.50369 8.34143 2.02322 8.34763C2.54607 5.81048 4.25036 3.70382 6.53512 2.6281V2.62762ZM16.3099 4.85143C17.4867 6.28951 18.134 8.08803 18.1437 9.9462C16.2599 9.57477 14.3865 9.47762 12.4789 9.67001C12.2646 9.13524 12.0046 8.62715 11.7556 8.07953C13.3999 7.4162 15.158 6.28096 16.3099 4.85096V4.85143ZM10.2266 8.6162C10.4304 9.04953 10.6665 9.50953 10.8885 9.97953C8.23607 11.1491 5.41465 12.7119 3.95036 15.4519C2.54465 13.8963 1.7955 11.8571 1.85988 9.76143C4.70036 9.7481 7.48846 9.39286 10.2266 8.6162ZM14.5304 10.8367C15.7155 10.8369 16.8957 10.989 18.0423 11.2891C17.8655 12.392 17.4637 13.4468 16.8618 14.3879C16.2599 15.3289 15.4709 16.136 14.5437 16.7591C14.1066 14.771 13.6899 12.8686 12.9532 10.9505C13.4753 10.8744 14.0023 10.8362 14.5299 10.8362L14.5304 10.8367ZM18.0846 10.9843C18.0789 11.031 18.0737 11.0767 18.067 11.1224C18.0737 11.0762 18.0794 11.0305 18.0846 10.9843ZM11.4466 11.3224C12.197 13.2619 12.7861 15.4095 13.1813 17.4995C12.1752 17.9264 11.0933 18.1457 10.0004 18.1443C8.18981 18.1469 6.43049 17.5434 5.00274 16.43C6.4775 14.0376 8.76179 12.2271 11.4461 11.3229L11.4466 11.3224Z" fill="#DA802D"/>
</svg>
