<svg width="20" height="20" viewBox="0 0 20 20" fill="none" xmlns="http://www.w3.org/2000/svg">
<path d="M11.0749 7.74166L7.74162 11.075C7.66351 11.1525 7.60151 11.2446 7.55921 11.3462C7.5169 11.4477 7.49512 11.5566 7.49512 11.6667C7.49512 11.7767 7.5169 11.8856 7.55921 11.9871C7.60151 12.0887 7.66351 12.1809 7.74162 12.2583C7.81908 12.3364 7.91125 12.3984 8.0128 12.4407C8.11435 12.483 8.22327 12.5048 8.33328 12.5048C8.44329 12.5048 8.55221 12.483 8.65376 12.4407C8.75531 12.3984 8.84748 12.3364 8.92495 12.2583L12.2583 8.92499C12.4152 8.76807 12.5034 8.55524 12.5034 8.33332C12.5034 8.11141 12.4152 7.89858 12.2583 7.74166C12.1014 7.58474 11.8885 7.49658 11.6666 7.49658C11.4447 7.49658 11.2319 7.58474 11.0749 7.74166Z" fill="#DA802D"/>
<path d="M10.2334 14.5L9.16669 15.5583C8.56788 16.1754 7.76289 16.5504 6.90527 16.6119C6.04764 16.6733 5.19739 16.417 4.51669 15.8917C4.15692 15.5952 3.86333 15.2266 3.65489 14.8096C3.44645 14.3926 3.3278 13.9365 3.3066 13.4708C3.28539 13.0051 3.36211 12.5401 3.53179 12.1059C3.70147 11.6717 3.96035 11.2779 4.29169 10.95L5.47503 9.75833C5.55313 9.68086 5.61513 9.58869 5.65744 9.48714C5.69974 9.38559 5.72152 9.27667 5.72152 9.16666C5.72152 9.05665 5.69974 8.94773 5.65744 8.84618C5.61513 8.74463 5.55313 8.65246 5.47503 8.575C5.39756 8.49689 5.30539 8.43489 5.20384 8.39259C5.10229 8.35028 4.99337 8.3285 4.88336 8.3285C4.77335 8.3285 4.66443 8.35028 4.56288 8.39259C4.46133 8.43489 4.36916 8.49689 4.29169 8.575L3.23336 9.64166C2.34182 10.505 1.79385 11.6625 1.69116 12.8993C1.58848 14.1361 1.93807 15.3681 2.67503 16.3667C3.11243 16.9341 3.66556 17.402 4.29768 17.7392C4.92981 18.0764 5.62645 18.2753 6.34134 18.3226C7.05623 18.3699 7.773 18.2645 8.44404 18.0135C9.11508 17.7625 9.72502 17.3715 10.2334 16.8667L11.4167 15.6833C11.5736 15.5264 11.6618 15.3136 11.6618 15.0917C11.6618 14.8697 11.5736 14.6569 11.4167 14.5C11.2598 14.3431 11.0469 14.2549 10.825 14.2549C10.6031 14.2549 10.3903 14.3431 10.2334 14.5ZM16.3834 2.68333C15.3779 1.93872 14.1358 1.58557 12.8891 1.68985C11.6423 1.79413 10.4761 2.34871 9.60836 3.25L8.70836 4.16666C8.60549 4.24144 8.51947 4.33699 8.45587 4.44712C8.39227 4.55726 8.35251 4.67952 8.33916 4.80599C8.3258 4.93246 8.33915 5.06033 8.37835 5.18132C8.41755 5.30231 8.48171 5.41371 8.56669 5.50833C8.64416 5.58644 8.73633 5.64843 8.83788 5.69074C8.93943 5.73305 9.04835 5.75483 9.15836 5.75483C9.26837 5.75483 9.37729 5.73305 9.47884 5.69074C9.58039 5.64843 9.67256 5.58644 9.75003 5.50833L10.8334 4.41666C11.4289 3.79693 12.2329 3.41986 13.0902 3.3583C13.9474 3.29673 14.7971 3.55504 15.475 4.08333C15.8375 4.37983 16.1334 4.74937 16.3435 5.16788C16.5536 5.58639 16.6731 6.04447 16.6944 6.51227C16.7156 6.98007 16.638 7.44709 16.4667 7.88291C16.2954 8.31872 16.0341 8.71355 15.7 9.04166L14.5167 10.2333C14.4386 10.3108 14.3766 10.403 14.3343 10.5045C14.292 10.6061 14.2702 10.715 14.2702 10.825C14.2702 10.935 14.292 11.0439 14.3343 11.1455C14.3766 11.247 14.4386 11.3392 14.5167 11.4167C14.5942 11.4948 14.6863 11.5568 14.7879 11.5991C14.8894 11.6414 14.9983 11.6632 15.1084 11.6632C15.2184 11.6632 15.3273 11.6414 15.4288 11.5991C15.5304 11.5568 15.6226 11.4948 15.7 11.4167L16.8834 10.2333C17.3868 9.72508 17.7766 9.11567 18.0267 8.44545C18.2769 7.77522 18.3819 7.0595 18.3346 6.34566C18.2873 5.63183 18.0889 4.93619 17.7525 4.30482C17.4161 3.67344 16.9494 3.12074 16.3834 2.68333Z" fill="#DA802D"/>
</svg>
