<?xml version="1.0" standalone="no"?>
<!DOCTYPE svg PUBLIC "-//W3C//DTD SVG 20010904//EN"
 "http://www.w3.org/TR/2001/REC-SVG-20010904/DTD/svg10.dtd">
<svg version="1.0" xmlns="http://www.w3.org/2000/svg"
 width="318.000000pt" height="68.000000pt" viewBox="0 0 318.000000 68.000000"
 preserveAspectRatio="xMidYMid meet">

<g transform="translate(0.000000,68.000000) scale(0.100000,-0.100000)"
fill="#000000" stroke="none">
<path d="M328 595 c-22 -13 -88 -108 -88 -129 0 -4 10 -1 22 5 63 34 190 49
229 29 45 -25 5 -60 -86 -75 -60 -10 -75 -15 -75 -26 0 -5 39 -35 88 -66 91
-58 162 -119 162 -138 0 -21 -47 -56 -95 -71 -26 -7 -76 -14 -111 -15 -35 -1
-64 -5 -64 -10 0 -19 44 -29 133 -29 80 0 98 3 120 21 37 28 137 208 137 245
0 28 -14 56 -89 188 -19 33 -29 56 -23 52 6 -4 36 -51 67 -105 73 -129 73
-144 -4 -276 -33 -55 -58 -101 -56 -103 20 -21 147 189 147 244 0 23 -19 67
-56 134 -62 108 -61 107 -98 114 -15 2 -35 9 -46 15 -31 16 -182 13 -214 -4z"/>
<path d="M686 493 c61 -109 74 -136 74 -158 0 -11 -25 -64 -56 -119 -51 -92
-60 -117 -35 -102 6 4 34 46 62 94 68 113 69 140 10 242 -48 82 -69 110 -83
110 -6 0 7 -30 28 -67z"/>
<path d="M933 530 c-57 -34 -79 -112 -50 -170 24 -47 73 -70 148 -70 87 0 115
-22 89 -71 -10 -17 -22 -19 -124 -19 -122 0 -141 -7 -134 -52 3 -22 6 -23 130
-26 100 -2 134 1 158 13 79 41 80 179 0 220 -17 9 -56 15 -95 15 -52 0 -69 4
-85 20 -43 43 -14 73 79 80 60 5 66 7 69 28 6 40 -14 52 -87 52 -48 0 -75 -5
-98 -20z"/>
<path d="M1271 536 c-7 -8 -11 -25 -9 -38 3 -21 9 -23 73 -28 l70 -5 5 -170 5
-170 26 -3 c14 -2 31 3 37 11 7 8 12 72 14 173 l3 159 64 5 c71 6 96 25 75 57
-10 16 -32 18 -181 21 -140 2 -172 0 -182 -12z"/>
<path d="M1800 534 c-45 -20 -87 -59 -111 -107 -17 -32 -19 -55 -17 -170 l3
-132 30 0 c19 0 33 7 40 20 39 77 74 95 183 95 l82 0 0 -41 c0 -52 15 -79 44
-79 43 0 49 20 44 152 -5 132 -13 160 -65 212 -60 61 -159 82 -233 50z m157
-91 c29 -19 53 -63 53 -98 0 -25 0 -25 -90 -25 -58 0 -104 -5 -127 -15 -19 -8
-38 -15 -40 -15 -3 0 -3 23 -1 50 10 105 119 159 205 103z"/>
<path d="M2318 536 c-56 -20 -85 -42 -115 -87 -32 -49 -43 -141 -22 -192 39
-96 108 -140 216 -135 62 3 68 5 71 26 5 37 -15 52 -70 52 -60 0 -103 21 -128
63 -54 88 8 197 112 197 27 0 58 5 69 10 21 12 25 50 7 68 -16 16 -93 15 -140
-2z"/>
<path d="M2564 531 c-33 -20 -64 -75 -64 -113 0 -37 34 -90 71 -110 23 -12 55
-18 99 -18 70 0 90 -10 90 -45 0 -39 -19 -45 -131 -45 -84 0 -111 -3 -123 -16
-9 -8 -16 -21 -16 -28 0 -30 25 -36 151 -36 122 0 129 1 158 26 63 53 63 146
0 199 -26 21 -40 25 -100 25 -86 0 -109 11 -109 50 0 37 12 44 89 50 71 6 96
25 75 58 -17 26 -148 29 -190 3z"/>
<path d="M186 385 c-14 -38 -4 -83 32 -145 l37 -65 71 -3 c59 -2 75 1 95 17
33 27 22 42 -86 108 -50 30 -102 66 -116 79 -23 22 -27 23 -33 9z"/>
</g>
</svg>
